<svg width="113" height="224" viewBox="0 0 113 224" fill="none" xmlns="http://www.w3.org/2000/svg">
<path fill-rule="evenodd" clip-rule="evenodd" d="M56.5 0C87.0968 0 111.962 24.538 112.491 55.0086L112.5 55V55.9705L112.5 56V168L112.5 168.029V169L112.491 168.991C111.962 199.462 87.0968 224 56.5 224C25.9032 224 1.03757 199.462 0.508604 168.991L0.5 169V56V55L0.508604 55.0086C1.03757 24.538 25.9032 0 56.5 0ZM2.50001 70.8857V168C2.50001 197.823 26.6766 222 56.5 222C86.3234 222 110.5 197.823 110.5 168V70.8856C103.981 94.5882 82.2738 112 56.5 112C30.7262 112 9.0192 94.5882 2.50001 70.8857ZM110.5 56L2.50001 56C2.50001 26.1766 26.6766 2 56.5 2C86.3234 2 110.5 26.1766 110.5 56Z" fill="white"/>
</svg>
