<svg width="225" height="112" viewBox="0 0 225 112" fill="none" xmlns="http://www.w3.org/2000/svg">
<path fill-rule="evenodd" clip-rule="evenodd" d="M56.5 110C27.0107 110 3.04231 86.3619 2.50907 57H56.5088C56.9524 82.3339 74.219 103.565 97.6143 110H56.5ZM56.5 2C27.0107 2 3.04231 25.6381 2.50907 55H56.5088C56.9524 29.6661 74.219 8.4347 97.6143 2H56.5ZM111.5 109.991C82.4707 109.464 59.0363 86.0293 58.5091 57H111.5V109.991ZM113.5 112H112.5H111.5H56.5C25.5721 112 0.5 86.9279 0.5 56C0.5 25.0721 25.5721 0 56.5 0H111.5H112.5H113.5H168.5H169.5V0.00874914C199.967 0.542244 224.5 25.4061 224.5 56C224.5 86.5939 199.967 111.458 169.5 111.991V112H168.5H113.5ZM111.5 2.00907C82.4707 2.53627 59.0363 25.9707 58.5091 55H111.5V2.00907ZM113.5 45.4096V2H153.614C133.242 7.60338 117.516 24.4272 113.5 45.4096ZM113.5 66.5904C117.516 87.5728 133.241 104.397 153.614 110H113.5V66.5904ZM167.5 109.991C138.471 109.464 115.036 86.0293 114.509 57H167.5V109.991ZM114.509 55H167.5V2.00907C138.471 2.53627 115.036 25.9707 114.509 55ZM169.5 109.991C198.862 109.458 222.5 85.4893 222.5 56C222.5 26.5107 198.862 2.54231 169.5 2.00907V109.991Z" fill="white"/>
</svg>
