<svg width="225" height="112" viewBox="0 0 225 112" fill="none" xmlns="http://www.w3.org/2000/svg">
<path fill-rule="evenodd" clip-rule="evenodd" d="M169.491 111.991C199.962 111.462 224.5 86.5968 224.5 56C224.5 25.4032 199.962 0.537575 169.491 0.00860909L169.5 4.9831e-06L55.5 0L55.5086 0.00860411C25.038 0.537568 0.500002 25.4032 0.5 56C0.499999 86.5968 25.038 111.462 55.5086 111.991L55.5 112H56.4707L56.5 112L168.5 112L168.53 112H169.5L169.491 111.991ZM168.5 96C146.409 96 128.5 78.0914 128.5 56C128.5 33.9086 146.409 16 168.5 16V96Z" fill="white"/>
</svg>
